<?xml version="1.0" encoding="UTF-8"?>
<!DOCTYPE svg PUBLIC "-//W3C//DTD SVG 1.1//EN" "http://www.w3.org/Graphics/SVG/1.1/DTD/svg11.dtd">
<!-- Creator: CorelDRAW -->
<svg xmlns="http://www.w3.org/2000/svg" xml:space="preserve" width="176.464mm" height="180.036mm" style="shape-rendering:geometricPrecision; text-rendering:geometricPrecision; image-rendering:optimizeQuality; fill-rule:evenodd; clip-rule:evenodd"
viewBox="0 0 176.464 180.036"
 xmlns:xlink="http://www.w3.org/1999/xlink">
 <defs>
  <style type="text/css">
   <![CDATA[
    .str0 {stroke:#2B2A29;stroke-width:0.2}
    .str3 {stroke:#727271;stroke-width:0.2}
    .str2 {stroke:#D9DADA;stroke-width:0.2}
    .str1 {stroke:#E31E24;stroke-width:0.2}
    .fil0 {fill:none}
    .fil1 {fill:#727271}
    .fil2 {fill:#D9DADA}
    .fil3 {fill:#E31E24}
    .fil4 {fill:#FEFEFE;fill-rule:nonzero}
   ]]>
  </style>
 </defs>
 <g id="Layer_x0020_1">
  <metadata id="CorelCorpID_0Corel-Layer"/>
  <ellipse class="fil0 str0" cx="162.946" cy="-79.8938" rx="0.8467" ry="0.2116"/>
  <path class="fil1 str1" d="M67.8388 71.4655c21.4076,-2.6912 38.3708,13.3249 40.6268,31.6426 2.6612,21.6071 -13.2349,38.4886 -31.8985,40.7645 -21.3797,2.6071 -38.3061,-13.4569 -40.4824,-31.8641 -2.5365,-21.4537 13.1495,-38.2043 31.7541,-40.543zm-63.7437 26.7304c-0.7563,2.02 -0.5675,15.9025 -0.214,18.5954 2.1996,0.0744 16.5633,-0.3919 17.0292,0.4939 1.9269,0.777 1.6725,4.5463 3.7368,9.3558 0.6902,1.6083 1.244,3.0328 2.0728,4.6307 3.7149,7.1619 5.59,2.6641 -9.6666,18.4469l13.1491 13.0626c3.5143,-1.9947 11.2632,-12.8451 13.8594,-12.1794 0.5946,0.1525 3.3716,1.9203 4.3067,2.4027 1.4689,0.7577 2.9063,1.4994 4.5476,2.1713 2.6657,1.0912 7.8677,2.186 9.7308,3.3074 0.5627,0.5428 0.7165,1.343 0.7541,2.0977 0.0283,0.571 -0.0368,1.5003 -0.0391,2.123l0.0016 13.5261 18.179 -0.0109 0.3146 -17.0058c0.5199,-2.0237 4.7345,-1.9688 9.3983,-3.9021 1.6603,-0.6883 3.1011,-1.292 4.6001,-2.0859 1.3389,-0.7091 3.2005,-1.9994 4.2939,-2.4539 2.0282,-0.8432 4.5843,2.7548 7.198,5.3442l6.9025 6.7671 13.1887 -13.2317c-1.5889,-1.9025 -7.2322,-7.3769 -9.5908,-9.6902 -5.004,-4.9078 -2.1305,-2.7811 1.8062,-12.663l3.6009 -9.9251 17.826 -0.2719 -0.0763 -18.8907 -17.8831 -0.2586c-1.0295,-1.2186 -2.4956,-7.6097 -3.3309,-9.6678 -3.9519,-9.7374 -6.8292,-8.083 -2.2978,-12.563l9.9749 -10.0552 -13.3042 -13.145 -12.7 12.2681c-1.9761,-0.1246 -5.4351,-2.9428 -9.2023,-4.3668l-10.1739 -3.5513 -0.3632 -18.0181 -18.9206 0.165 -0.2148 17.8623c-1.9054,1.1175 -7.0898,2.1975 -9.9353,3.4005l-9.3982 4.5269 -12.9835 -12.3657c-3.1369,2.7704 -9.8618,9.8882 -13.1255,13.2485 2.2127,3.5222 12.6381,11.3372 12.2314,13.6156 -0.0989,0.5537 -1.8705,3.2859 -2.2895,4.0848 -2.1348,4.0711 -2.4662,5.2603 -3.9142,9.5039l-1.8002 4.9031c-1.7375,1.0687 -14.2074,0.4224 -17.2786,0.3986z"/>
  <path class="fil2 str2" d="M81.9773 159.206l-0.0819 17.2898c-2.9569,0.1197 -16.9423,0.3732 -18.966,-0.1784l-0.1623 -17.8415c-1.8631,-1.1214 -7.0651,-2.2162 -9.7308,-3.3074 -1.6413,-0.6719 -3.0787,-1.4136 -4.5476,-2.1713 -0.9351,-0.4824 -3.7121,-2.2502 -4.3067,-2.4027 -2.5962,-0.6657 -10.3451,10.1847 -13.8594,12.1794l-13.1491 -13.0626c15.2566,-15.7828 13.3815,-11.285 9.6666,-18.4469 -0.8288,-1.5979 -1.3826,-3.0224 -2.0728,-4.6307 -2.0643,-4.8095 -1.8099,-8.5788 -3.7368,-9.3558l-17.4274 -0.09 -0.0881 -14.8164c-0.0062,-3.7774 -0.4967,-3.7189 0.7003,-4.1829 3.0712,0.0238 15.5411,0.6701 17.2786,-0.3986l1.8002 -4.9031c1.448,-4.2436 1.7794,-5.4328 3.9142,-9.5039 0.419,-0.7989 2.1906,-3.5311 2.2895,-4.0848 0.4067,-2.2784 -10.0187,-10.0934 -12.2314,-13.6156 3.2637,-3.3603 9.9886,-10.4781 13.1255,-13.2485l12.9835 12.3657 9.3982 -4.5269c2.8455,-1.203 8.0299,-2.283 9.9353,-3.4005l0.2148 -17.8623 18.9206 -0.165 0.3632 18.0181 10.1739 3.5513c3.7672,1.424 7.2262,4.2422 9.2023,4.3668l12.7 -12.2681 13.3042 13.145 -9.9749 10.0552c-4.5314,4.48 -1.6541,2.8256 2.2978,12.563 0.8353,2.0581 2.3014,8.4492 3.3309,9.6678l17.8831 0.2586 0.0763 18.8907 -17.826 0.2719 -3.6009 9.9251c-3.9367,9.8819 -6.8102,7.7552 -1.8062,12.663 2.3586,2.3133 8.0019,7.7877 9.5908,9.6902l-13.1887 13.2317 -6.9025 -6.7671c-2.6137,-2.5894 -5.1698,-6.1874 -7.198,-5.3442 -1.0934,0.4545 -2.955,1.7448 -4.2939,2.4539 -1.499,0.7939 -2.9398,1.3976 -4.6001,2.0859 -4.6638,1.9333 -8.8784,1.8784 -9.3983,3.9021zm-22.4705 -104.84c-9.3833,3.3624 -6.1145,1.7621 -15.9163,6.4601 -1.1742,-1.5935 -8.9447,-8.9527 -11.1718,-11.3567 -2.0958,-2.2621 -2.7934,-1.2452 -4.4554,0.4449l-15.038 15.7681c0.4347,1.7248 10.6151,11.4484 12.5387,13.4056 -0.2363,1.0036 -2.5492,4.8179 -3.5625,7.449l-2.8678 8.1145 -18.2802 0.7377c-1.2006,1.3174 -0.6027,18.8595 -0.6182,21.8227 -0.0223,4.2524 1.0874,3.3518 7.6096,3.357l11.4907 0.0184c1.3361,6.0986 3.5911,10.1475 6.225,15.6507 -1.7913,2.1731 -4.2765,4.397 -6.3379,6.4387l-6.2066 6.9668c0.5083,1.7773 5.8382,6.4999 7.3087,7.9799 2.6028,2.6193 4.9849,4.9883 7.5817,7.5925 1.3396,1.3434 2.192,2.9267 4.2611,1.0089 3.7396,-3.4662 7.9845,-8.0199 11.539,-11.7227 1.7697,0.465 5.4056,2.6925 7.5475,3.6067l8.3665 2.8328 0.5019 18.2664c0.6714,1.6719 22.0255,0.3147 24.7334,0.2042l0.5817 -18.567c7.0428,-1.7438 9.2576,-3.1904 15.5406,-6.2938 1.6955,1.1419 9.133,8.9696 11.5534,11.4173 2.0598,2.083 2.8783,1.1846 4.5129,-0.6139 6.7056,-7.3781 8.5241,-7.2351 14.9242,-16.0641 -0.3937,-0.8602 -10.9773,-11.4479 -12.5302,-13.0527 0.3264,-1.3206 2.7239,-5.5023 3.5251,-7.2949l2.6975 -8.3581 14.8361 -0.0116c2.8059,0.0222 1.855,0.3045 4.0389,-0.916l-0.0768 -24.4311 -18.8142 -0.5542c-1.0944,-5.6789 -3.7747,-10.5435 -6.2651,-15.6529l10.8511 -10.9002c3.0193,-2.7585 2.0672,-2.9289 -1.187,-6.1642l-5.4467 -5.4899c-11.6024,-10.5701 -5.4221,-12.3707 -22.6192,4.2959 -0.9434,-0.3318 -4.6034,-2.5557 -7.3408,-3.6131l-8.0771 -2.7541 -0.7136 -18.7179c-3,-0.7848 -17.5782,-0.2719 -21.9909,-0.2888 -4.1169,-0.0157 -3.265,1.1302 -3.265,7.7178 0,3.7411 -0.0524,7.5261 0.016,11.2613z"/>
  <path class="fil1 str3" d="M81.9773 159.206l-0.3146 17.0058 -18.179 0.0109 -0.0016 -13.5261c0.0023,-0.6227 0.0674,-1.552 0.0391,-2.123 -0.0376,-0.7547 -0.1914,-1.5549 -0.7541,-2.0977l0.1623 17.8415c2.0237,0.5516 16.0091,0.2981 18.966,0.1784l0.0819 -17.2898z"/>
  <rect class="fil3 str1" transform="matrix(0.886675 -0.462393 0.462393 0.886675 87.3858 9.4644)" width="20.4687" height="19.3335"/>
  <polygon class="fil3 str1" points="134.057,29.1399 141.104,46.5432 164.043,37.6519 151.069,53.3727 176.464,58.202 151.069,63.0312 164.043,78.752 141.104,69.8607 134.057,87.264 127.01,69.8607 104.071,78.752 117.045,63.0312 91.6499,58.202 117.045,53.3727 104.071,37.6519 127.01,46.5432 "/>
  <path class="fil4" d="M132.137 63.1l-0.9466 -13.3879 0 -5.5974 3.8394 0 0 5.5974 -0.8937 13.3879 -1.9991 0zm-0.8114 6.2677l0 -3.5337 3.569 0 0 3.5337 -3.569 0z"/>
 </g>
</svg>
